<svg id="Icons" height="512" viewBox="0 0 64 64" width="512" xmlns="http://www.w3.org/2000/svg"><path d="m33 22h30v33h-30z" fill="#c4a2fc"/><path d="m33 57v3a3 3 0 0 0 3 3h24a3 3 0 0 0 3-3v-3z" fill="#c4a2fc"/><path d="m63 20v-3a3 3 0 0 0 -3-3h-24a3 3 0 0 0 -3 3v3z" fill="#c4a2fc"/><g fill="#151a6a"><path d="m48 1h-44a3 3 0 0 0 -3 3v36a3 3 0 0 0 3 3h44a3 3 0 0 0 3-3v-36a3 3 0 0 0 -3-3zm-44 2h44a1 1 0 0 1 1 1v5h-46v-5a1 1 0 0 1 1-1zm44 38h-44a1 1 0 0 1 -1-1v-29h46v29a1 1 0 0 1 -1 1z"/><path d="m10.293 24.707a1 1 0 0 0 1.414-1.414l-3.293-3.293 3.293-3.293a1 1 0 0 0 -1.414-1.414l-4 4a1 1 0 0 0 0 1.414z"/><path d="m20.293 24.707a1 1 0 0 0 1.414 0l4-4a1 1 0 0 0 0-1.414l-4-4a1 1 0 0 0 -1.414 1.414l3.293 3.293-3.293 3.293a1 1 0 0 0 0 1.414z"/><path d="m14.149 24.937a1 1 0 0 0 1.288-.586l3-8a1 1 0 1 0 -1.874-.7l-3 8a1 1 0 0 0 .586 1.286z"/><path d="m45 16h-15a1 1 0 0 0 0 2h15a1 1 0 0 0 0-2z"/><path d="m45 22h-15a1 1 0 0 0 0 2h15a1 1 0 0 0 0-2z"/><path d="m45 28h-38a1 1 0 0 0 0 2h38a1 1 0 0 0 0-2z"/><path d="m45 34h-38a1 1 0 0 0 0 2h38a1 1 0 0 0 0-2z"/><circle cx="6" cy="6.003" r="1"/><circle cx="10" cy="6.003" r="1"/><circle cx="14" cy="6.003" r="1"/></g></svg>