<svg id="line" height="512" viewBox="0 0 64 64" width="512" xmlns="http://www.w3.org/2000/svg"><path d="m60 11h-44a3 3 0 0 0 -3 3v5h50v-5a3 3 0 0 0 -3-3zm-10 6a1 1 0 1 1 1-1 1 1 0 0 1 -1 1zm4 0a1 1 0 1 1 1-1 1 1 0 0 1 -1 1zm4 0a1 1 0 1 1 1-1 1 1 0 0 1 -1 1z" fill="#c4a2fc"/><path d="m13 21v37a3 3 0 0 0 3 3h44a3 3 0 0 0 3-3v-37zm33 4a7 7 0 1 1 -7 7 7 7 0 0 1 7-7zm-19 31h-8a1 1 0 0 1 0-2h8a1 1 0 0 1 0 2zm3-5h-11a1 1 0 0 1 0-2h11a1 1 0 0 1 0 2zm28 6h-24a1 1 0 0 1 -1-1.083l.929-11.142a3.01 3.01 0 0 1 1.112-2.092l3.186-2.549a2.989 2.989 0 0 1 3.54-.155l3.674 2.449a1 1 0 0 0 1.11 0l3.674-2.449a2.987 2.987 0 0 1 3.538.154l3.186 2.549a3.01 3.01 0 0 1 1.114 2.092l.937 11.143a1 1 0 0 1 -1 1.083z" fill="#c4a2fc"/><g fill="#151a6a"><path d="m45.706 11.292-8-8a1.012 1.012 0 0 0 -.706-.292h-26a3 3 0 0 0 -3 3v5h-4a3 3 0 0 0 -3 3v29a3 3 0 0 0 3 3h32a3 3 0 0 0 3-3v-2h4a3 3 0 0 0 3-3v-26a1.014 1.014 0 0 0 -.294-.708zm-7.706-4.878 4.586 4.586h-4.586zm-1 36.586a1 1 0 0 1 -1 1h-32a1 1 0 0 1 -1-1v-29a1 1 0 0 1 1-1h25v7a1 1 0 0 0 1 1h7zm-6-24v-4.586l4.586 4.586zm13 19a1 1 0 0 1 -1 1h-4v-19a1.014 1.014 0 0 0 -.294-.708l-8-8a1.012 1.012 0 0 0 -.706-.292h-20v-5a1 1 0 0 1 1-1h25v7a1 1 0 0 0 1 1h7z"/><path d="m7 26h7a1 1 0 0 0 1-1v-8a1 1 0 0 0 -1-1h-7a1 1 0 0 0 -1 1v8a1 1 0 0 0 1 1zm1-8h5v6h-5z"/><path d="m18 21h8a1 1 0 0 0 0-2h-8a1 1 0 0 0 0 2z"/><path d="m17 25a1 1 0 0 0 1 1h15a1 1 0 0 0 0-2h-15a1 1 0 0 0 -1 1z"/><path d="m33 29h-26a1 1 0 0 0 0 2h26a1 1 0 0 0 0-2z"/><path d="m33 34h-26a1 1 0 0 0 0 2h26a1 1 0 0 0 0-2z"/><path d="m33 39h-26a1 1 0 0 0 0 2h26a1 1 0 0 0 0-2z"/></g></svg>