<svg id="line" height="512" viewBox="0 0 64 64" width="512" xmlns="http://www.w3.org/2000/svg"><path d="m23 25h34v24h-34z" fill="#c4a2fc"/><path d="m60 19h-40a3 3 0 0 0 -3 3v30a3 3 0 0 0 3 3h40a3 3 0 0 0 3-3v-30a3 3 0 0 0 -3-3zm-1 31a1 1 0 0 1 -1 1h-36a1 1 0 0 1 -1-1v-26a1 1 0 0 1 1-1h36a1 1 0 0 1 1 1z" fill="#c4a2fc"/><path d="m52 61h-3.18l-.8-4h-16.04l-.8 4h-3.18a1 1 0 0 0 0 2h24a1 1 0 0 0 0-2z" fill="#c4a2fc"/><g fill="#151a6a"><path d="m30 27h-8a3 3 0 0 0 -3 3v14a3 3 0 0 0 3 3h8a3 3 0 0 0 3-3v-14a3 3 0 0 0 -3-3zm1 17a1 1 0 0 1 -1 1h-8a1 1 0 0 1 -1-1v-14a1 1 0 0 1 1-1h8a1 1 0 0 1 1 1z"/><path d="m48 14h-8a3 3 0 0 0 -3 3v27a3 3 0 0 0 3 3h8a3 3 0 0 0 3-3v-27a3 3 0 0 0 -3-3zm1 30a1 1 0 0 1 -1 1h-8a1 1 0 0 1 -1-1v-27a1 1 0 0 1 1-1h8a1 1 0 0 1 1 1z"/><path d="m12 18h-8a3 3 0 0 0 -3 3v23a3 3 0 0 0 3 3h8a3 3 0 0 0 3-3v-23a3 3 0 0 0 -3-3zm1 26a1 1 0 0 1 -1 1h-8a1 1 0 0 1 -1-1v-23a1 1 0 0 1 1-1h8a1 1 0 0 1 1 1z"/><path d="m8 13a3.979 3.979 0 0 0 3.115-1.522l10.951 4.868a3.994 3.994 0 1 0 7.934.654 3.968 3.968 0 0 0 -.237-1.307l11.584-7.722a3.984 3.984 0 1 0 -1.347-2.971 3.957 3.957 0 0 0 .237 1.306l-11.584 7.723a3.942 3.942 0 0 0 -5.768.493l-10.951-4.868a3.993 3.993 0 1 0 -3.934 3.346zm36-10a2 2 0 1 1 -2 2 2 2 0 0 1 2-2zm-18 12a2 2 0 1 1 -2 2 2 2 0 0 1 2-2zm-18-8a2 2 0 1 1 -2 2 2 2 0 0 1 2-2z"/></g></svg>